<svg width="26" height="27" viewBox="0 0 26 27" fill="none" xmlns="http://www.w3.org/2000/svg">
<path d="M13 25C19.6281 25 25 19.6281 25 13C25 6.37188 19.6281 1 13 1C6.37188 1 1 6.37188 1 13C1 19.6281 6.37188 25 13 25ZM18.2968 10.7968L12.2968 16.7968C11.8563 17.2375 11.1437 17.2375 10.7078 16.7968L7.70782 13.7968C7.26719 13.3563 7.26719 12.6437 7.70782 12.2078C8.14844 11.7719 8.86093 11.7671 9.29688 12.2078L11.5 14.4109L16.7032 9.20312C17.1437 8.7625 17.8563 8.7625 18.2922 9.20312C18.7281 9.64375 18.7329 10.3563 18.2922 10.7922L18.2968 10.7968Z" fill="white"/>
</svg>
